<svg width="36" height="35" viewBox="0 0 36 35" fill="none" xmlns="http://www.w3.org/2000/svg">
<path d="M35.4 32.992H1.2V1.40798C1.2 1.24885 1.13679 1.09624 1.02426 0.983719C0.911742 0.871197 0.75913 0.807983 0.6 0.807983C0.44087 0.807983 0.288258 0.871197 0.175736 0.983719C0.0632141 1.09624 0 1.24885 0 1.40798L0 33.592C0.000474818 33.751 0.0638414 33.9033 0.17626 34.0157C0.28868 34.1281 0.441016 34.1915 0.6 34.192H35.4C35.5591 34.192 35.7117 34.1288 35.8243 34.0163C35.9368 33.9037 36 33.7511 36 33.592C36 33.4329 35.9368 33.2802 35.8243 33.1677C35.7117 33.0552 35.5591 32.992 35.4 32.992ZM32.802 12.778V31.474C32.8022 31.5528 32.7869 31.631 32.7568 31.7039C32.7267 31.7768 32.6826 31.843 32.6268 31.8988C32.571 31.9545 32.5048 31.9987 32.4319 32.0288C32.359 32.0589 32.2809 32.0742 32.202 32.074H2.61C2.53114 32.0742 2.45301 32.0589 2.38011 32.0288C2.30721 31.9987 2.24097 31.9545 2.18521 31.8988C2.12944 31.843 2.08526 31.7768 2.05519 31.7039C2.02512 31.631 2.00976 31.5528 2.01 31.474V23.998C2.00932 23.9127 2.02721 23.8282 2.06244 23.7505C2.09767 23.6728 2.14938 23.6037 2.214 23.548L10.668 16.072C10.7566 15.9932 10.8663 15.9421 10.9836 15.925C11.1009 15.908 11.2207 15.9257 11.328 15.976L19.488 19.918L31.884 12.268C31.975 12.2118 32.0794 12.1808 32.1863 12.1784C32.2933 12.1759 32.3989 12.202 32.4925 12.254C32.586 12.3059 32.664 12.3818 32.7184 12.474C32.7728 12.5661 32.8016 12.671 32.802 12.778Z" fill="white"/>
</svg>
