<svg width="40" height="40" viewBox="0 0 40 40" fill="none" xmlns="http://www.w3.org/2000/svg">
<path d="M12.0003 3.33329H4.00033C3.82351 3.33329 3.65395 3.40353 3.52892 3.52856C3.4039 3.65358 3.33366 3.82315 3.33366 3.99996V12C3.33366 12.1768 3.26342 12.3463 3.1384 12.4714C3.01337 12.5964 2.8438 12.6666 2.66699 12.6666H1.33366C1.15685 12.6666 0.987279 12.5964 0.862254 12.4714C0.73723 12.3463 0.666992 12.1768 0.666992 12V1.99996C0.666992 1.64634 0.807468 1.3072 1.05752 1.05715C1.30757 0.807102 1.6467 0.666626 2.00033 0.666626H12.0003C12.1771 0.666626 12.3467 0.736864 12.4717 0.861888C12.5968 0.986912 12.667 1.15648 12.667 1.33329V2.66663C12.667 2.84344 12.5968 3.01301 12.4717 3.13803C12.3467 3.26305 12.1771 3.33329 12.0003 3.33329ZM28.0003 3.33329H36.0003C36.1771 3.33329 36.3467 3.40353 36.4717 3.52856C36.5968 3.65358 36.667 3.82315 36.667 3.99996V12C36.667 12.1768 36.7372 12.3463 36.8623 12.4714C36.9873 12.5964 37.1569 12.6666 37.3337 12.6666H38.667C38.8438 12.6666 39.0134 12.5964 39.1384 12.4714C39.2634 12.3463 39.3337 12.1768 39.3337 12V1.99996C39.3337 1.64634 39.1932 1.3072 38.9431 1.05715C38.6931 0.807102 38.354 0.666626 38.0003 0.666626H28.0003C27.8235 0.666626 27.6539 0.736864 27.5289 0.861888C27.4039 0.986912 27.3337 1.15648 27.3337 1.33329V2.66663C27.3337 2.84344 27.4039 3.01301 27.5289 3.13803C27.6539 3.26305 27.8235 3.33329 28.0003 3.33329ZM12.0003 36.6666H4.00033C3.82351 36.6666 3.65395 36.5964 3.52892 36.4714C3.4039 36.3463 3.33366 36.1768 3.33366 36V28C3.33366 27.8232 3.26342 27.6536 3.1384 27.5286C3.01337 27.4035 2.8438 27.3333 2.66699 27.3333H1.33366C1.15685 27.3333 0.987279 27.4035 0.862254 27.5286C0.73723 27.6536 0.666992 27.8232 0.666992 28V38C0.666992 38.3536 0.807468 38.6927 1.05752 38.9428C1.30757 39.1928 1.6467 39.3333 2.00033 39.3333H12.0003C12.1771 39.3333 12.3467 39.2631 12.4717 39.138C12.5968 39.013 12.667 38.8434 12.667 38.6666V37.3333C12.667 37.1565 12.5968 36.9869 12.4717 36.8619C12.3467 36.7369 12.1771 36.6666 12.0003 36.6666ZM28.0003 36.6666H36.0003C36.1771 36.6666 36.3467 36.5964 36.4717 36.4714C36.5968 36.3463 36.667 36.1768 36.667 36V28C36.667 27.8232 36.7372 27.6536 36.8623 27.5286C36.9873 27.4035 37.1569 27.3333 37.3337 27.3333H38.667C38.8438 27.3333 39.0134 27.4035 39.1384 27.5286C39.2634 27.6536 39.3337 27.8232 39.3337 28V38C39.3337 38.3536 39.1932 38.6927 38.9431 38.9428C38.6931 39.1928 38.354 39.3333 38.0003 39.3333H28.0003C27.8235 39.3333 27.6539 39.2631 27.5289 39.138C27.4039 39.013 27.3337 38.8434 27.3337 38.6666V37.3333C27.3337 37.1565 27.4039 36.9869 27.5289 36.8619C27.6539 36.7369 27.8235 36.6666 28.0003 36.6666Z" fill="#317153"/>
<path d="M23.3364 30.6666C22.0264 30.6666 21.705 28.5193 20.9997 20.0573C20.7444 16.9979 20.4117 13.0113 19.9957 11.3119C19.5804 13.0113 19.2484 16.9979 18.9957 20.0573C18.2884 28.5186 17.967 30.6666 16.6664 30.6666C15.3397 30.6666 15.0104 28.3999 14.3377 21.3959C14.0917 18.8339 13.7377 15.1573 13.3124 13.7533C12.8391 15.8355 12.5115 17.9482 12.3317 20.0759C11.6617 25.9459 11.311 27.9999 9.99971 27.9999C8.64904 27.9999 8.27238 25.7453 7.67304 21.4253C7.48994 19.7397 7.18311 18.0698 6.75504 16.4293C6.49171 17.3026 6.19971 18.9399 5.98904 20.1173C5.29704 23.9926 5.00704 25.3333 3.99971 25.3333C2.96038 25.3333 2.67704 24.0079 2.34771 22.4733C2.24411 21.8467 2.07128 21.2336 1.83238 20.6453C1.67536 20.6045 1.53857 20.508 1.44763 20.3737C1.35669 20.2393 1.31784 20.0765 1.33837 19.9156C1.35889 19.7547 1.43737 19.6068 1.55911 19.4996C1.68085 19.3924 1.8375 19.3332 1.99971 19.3333C3.03904 19.3333 3.32238 20.6586 3.65171 22.1933C3.72838 22.5513 3.83438 23.0473 3.94771 23.4446C4.20104 22.5459 4.47638 21.0053 4.67704 19.8826C5.36904 16.0073 5.65904 14.6666 6.66638 14.6666C8.01704 14.6666 8.39371 16.9213 8.99304 21.2413C9.23371 22.9746 9.57971 25.4626 9.97171 26.3953C10.395 25.2859 10.755 22.1166 11.0044 19.9246C11.671 14.0539 12.0217 11.9999 13.333 11.9999C14.659 11.9999 14.9884 14.2666 15.661 21.2666C15.8413 23.7819 16.1695 26.2845 16.6437 28.7612C17.0684 27.1073 17.4057 23.0479 17.6644 19.9446C18.3704 11.4813 18.691 9.33325 19.9957 9.33325C21.3004 9.33325 21.6224 11.4813 22.329 19.9459C22.5884 23.0559 22.929 27.1253 23.353 28.7726C23.8296 26.2923 24.1584 23.7859 24.3377 21.2666C25.011 14.2666 25.3397 11.9999 26.6664 11.9999C27.9777 11.9999 28.3284 14.0539 28.995 19.9246C29.2444 22.1166 29.6044 25.2859 30.0277 26.3953C30.4197 25.4619 30.7657 22.9719 31.0064 21.2413C31.6057 16.9213 31.9824 14.6666 33.333 14.6666C34.3404 14.6666 34.6304 16.0073 35.3224 19.8826C35.5224 21.0053 35.7984 22.5493 36.0517 23.4446C36.165 23.0446 36.271 22.5513 36.3477 22.1933C36.677 20.6599 36.9604 19.3333 37.9997 19.3333C38.1619 19.3332 38.3186 19.3924 38.4403 19.4996C38.562 19.6068 38.6405 19.7547 38.6611 19.9156C38.6816 20.0765 38.6427 20.2393 38.5518 20.3737C38.4609 20.508 38.3241 20.6045 38.167 20.6453C37.9281 21.2336 37.7553 21.8467 37.6517 22.4733C37.3224 24.0079 37.039 25.3333 35.9997 25.3333C34.9924 25.3333 34.7024 23.9926 34.0104 20.1173C33.7997 18.9399 33.5077 17.3026 33.2444 16.4293C32.8163 18.0698 32.5095 19.7397 32.3264 21.4253C31.727 25.7453 31.3504 27.9999 29.9997 27.9999C28.6884 27.9999 28.3377 25.9459 27.671 20.0753C27.4914 17.9475 27.1637 15.8348 26.6904 13.7526C26.2664 15.1566 25.911 18.8339 25.6664 21.3999C24.9917 28.3999 24.663 30.6666 23.3364 30.6666Z" fill="#ADDE34"/>
<path d="M39.3333 20.6666H0.666667C0.489856 20.6666 0.320286 20.5963 0.195262 20.4713C0.0702379 20.3463 0 20.1767 0 19.9999C0 19.8231 0.0702379 19.6535 0.195262 19.5285C0.320286 19.4035 0.489856 19.3333 0.666667 19.3333H39.3333C39.5101 19.3333 39.6797 19.4035 39.8047 19.5285C39.9298 19.6535 40 19.8231 40 19.9999C40 20.1767 39.9298 20.3463 39.8047 20.4713C39.6797 20.5963 39.5101 20.6666 39.3333 20.6666Z" fill="#317153"/>
</svg>
