<svg width="22" height="21" viewBox="0 0 22 21" fill="none" xmlns="http://www.w3.org/2000/svg">
<path d="M19.25 0.250244H2.75C1.475 0.250244 0.5 1.22524 0.5 2.50024V13.7502C0.5 15.0252 1.475 16.0002 2.75 16.0002H19.25C20.525 16.0002 21.5 15.0252 21.5 13.7502V2.50024C21.5 1.22524 20.525 0.250244 19.25 0.250244ZM17.75 9.25025H14C13.775 9.25025 13.55 9.10025 13.4 8.95025L12.725 7.90025L11.75 10.3002C11.6 10.5252 11.3 10.7502 11 10.7502C10.7 10.7502 10.475 10.6002 10.325 10.3002L9.275 8.20025L8.525 8.95025C8.375 9.17525 8.225 9.25025 8 9.25025H4.25C3.8 9.25025 3.5 8.95025 3.5 8.50025C3.5 8.05025 3.8 7.75025 4.25 7.75025H7.7L8.975 6.47525C9.125 6.32525 9.425 6.25025 9.65 6.25025C9.875 6.32524 10.1 6.47524 10.175 6.62525L10.925 8.12525L11.825 5.95025C11.9 5.72525 12.2 5.50025 12.425 5.50025C12.725 5.50025 12.95 5.57524 13.1 5.80024L14.375 7.75025H17.75C18.2 7.75025 18.5 8.05025 18.5 8.50025C18.5 8.95025 18.2 9.25025 17.75 9.25025Z" fill="white"/>
<path d="M14.375 17.9502C14.675 18.7752 15.425 19.3002 16.25 19.3002C16.7 19.3002 17 19.6002 17 20.0502C17 20.5002 16.7 20.8002 16.25 20.8002H5.75C5.3 20.8002 5 20.5002 5 20.0502C5 19.6002 5.3 19.3002 5.75 19.3002C6.575 19.3002 7.325 18.7752 7.55 17.9502C7.625 17.9502 7.625 17.8752 7.625 17.8002H14.3C14.375 17.8002 14.375 17.8752 14.375 17.9502Z" fill="#ADDE34"/>
</svg>
