<svg width="40" height="34" viewBox="0 0 40 34" fill="none" xmlns="http://www.w3.org/2000/svg">
<path d="M7.89813 8.44971V2.73439C7.89813 2.25033 7.5057 1.85791 7.02164 1.85791H4.10109C3.61703 1.85791 3.22461 2.25033 3.22461 2.73439V8.44971" fill="#435054"/>
<path d="M5.34703 8.44971V1.85791H4.10109C3.61703 1.85791 3.22461 2.25033 3.22461 2.73439V8.44971" fill="#022213"/>
<path d="M40 9.49139V30.8751C40 32.3412 38.8114 33.5297 37.3453 33.5297H2.65469C1.18859 33.5297 0 32.3412 0 30.8751V9.49139C0 8.02529 1.18859 6.8367 2.65469 6.8367H7.90391C9.03453 6.8367 10.0419 6.12076 10.4125 5.05225L11.3815 2.25553C11.5622 1.73415 11.901 1.28205 12.3506 0.962089C12.8001 0.642125 13.3383 0.470199 13.8901 0.470215H29.3755C30.5062 0.470215 31.5127 1.18693 31.8833 2.25553L32.853 5.05225C33.0338 5.57341 33.3724 6.02532 33.8218 6.34513C34.2713 6.66494 34.8092 6.83676 35.3608 6.8367H37.3452C38.8114 6.8367 40 8.02529 40 9.49139Z" fill="#ADDE34"/>
<path d="M4.73633 33.5297H2.65469C1.18859 33.5297 0 32.3412 0 30.8751V9.49139C0 8.02529 1.18859 6.8367 2.65469 6.8367H4.57141V6.84162C3.18203 6.92732 2.08164 8.08084 2.08164 9.49139V30.8751C2.08164 32.3412 3.27023 33.5297 4.73633 33.5297ZM15.9716 0.470215C15.4198 0.470211 14.8817 0.642142 14.4321 0.962103C13.9825 1.28206 13.6438 1.73416 13.463 2.25553L12.4941 5.05225C12.1234 6.12084 11.1161 6.8367 9.98547 6.8367H8.20422V6.81959C9.20992 6.70529 10.0752 6.02529 10.4123 5.05225L11.3813 2.25553C11.5621 1.73415 11.9008 1.28205 12.3504 0.962089C12.8 0.642125 13.3381 0.470199 13.8899 0.470215H15.9716Z" fill="#ADDE34"/>
<path d="M40 14.0613V30.8752C40 32.3413 38.8114 33.5299 37.3453 33.5299H2.65469C1.18859 33.5299 0 32.3413 0 30.8752V14.0613H40Z" fill="#317153"/>
<path d="M4.73633 33.5298H2.65469C1.18859 33.5298 0 32.3412 0 30.8751V14.0613H2.08164V30.8752C2.08164 32.3413 3.27023 33.5298 4.73633 33.5298Z" fill="#022213"/>
<path d="M19.9998 31.04C26.1083 31.04 31.0602 26.0881 31.0602 19.9796C31.0602 13.8711 26.1083 8.91919 19.9998 8.91919C13.8914 8.91919 8.93945 13.8711 8.93945 19.9796C8.93945 26.0881 13.8914 31.04 19.9998 31.04Z" fill="#E5E9EA"/>
<path d="M27.8203 19.9796C27.8203 22.2825 26.8252 24.3527 25.2407 25.7846C23.8538 27.0376 22.017 27.8008 19.9999 27.8008C17.9836 27.8008 16.146 27.0375 14.7591 25.7845C13.1746 24.3535 12.1787 22.2825 12.1787 19.9796C12.1787 17.6767 13.1746 15.6057 14.7591 14.1755C16.1461 12.9216 17.9836 12.1592 19.9999 12.1592C22.017 12.1592 23.8538 12.9225 25.2407 14.1755C26.8252 15.6066 27.8203 17.6768 27.8203 19.9796Z" fill="#4B6458"/>
<path d="M25.5298 14.4495C27.1582 16.0778 27.9184 18.2453 27.8104 20.3782C25.6775 20.4861 23.51 19.726 21.8817 18.0976C20.2533 16.4692 19.4931 14.3017 19.6016 12.1695C21.7339 12.061 23.9014 12.8212 25.5298 14.4495ZM18.1182 21.8612C19.7465 23.4895 20.5067 25.657 20.3988 27.7899C18.2664 27.8985 16.0978 27.1383 14.4695 25.5099C12.8411 23.8815 12.0809 21.7128 12.19 19.5811C14.3223 19.4725 16.4898 20.2327 18.1182 21.8612Z" fill="#133927"/>
<path d="M19.9994 28.4127C15.3495 28.4127 11.5664 24.6296 11.5664 19.9797C11.5664 15.3298 15.3495 11.5468 19.9994 11.5468C24.6493 11.5468 28.4323 15.3297 28.4323 19.9797C28.4323 24.6297 24.6493 28.4127 19.9994 28.4127ZM19.9994 12.7712C16.0246 12.7712 12.7909 16.005 12.7909 19.9797C12.7909 23.9545 16.0246 27.1882 19.9994 27.1882C23.9741 27.1882 27.2079 23.9545 27.2079 19.9797C27.2079 16.005 23.9741 12.7712 19.9994 12.7712Z" fill="#022213"/>
<path d="M19.9998 16.8402C18.2687 16.8402 16.8604 18.2486 16.8604 19.9797C16.8604 21.7109 18.2687 23.1192 19.9998 23.1192C21.7309 23.1192 23.1393 21.7108 23.1393 19.9797C23.1393 18.2486 21.7309 16.8402 19.9998 16.8402Z" fill="#435054"/>
<path d="M23.9734 6.22477H28.7846C29.4171 6.22477 29.9299 5.71203 29.9299 5.07945V3.81914C29.9299 3.18664 29.4172 2.67383 28.7846 2.67383H23.9734C23.3409 2.67383 22.8281 3.18656 22.8281 3.81914V5.07945C22.8281 5.71195 23.3409 6.22477 23.9734 6.22477Z" fill="#022213"/>
<path d="M28.7846 6.83696H23.9734C23.0043 6.83696 22.2158 6.04852 22.2158 5.07938V3.81922C22.2158 2.85008 23.0043 2.06165 23.9734 2.06165H28.7846C29.7537 2.06165 30.5422 2.85008 30.5422 3.81922V5.07946C30.5421 6.0486 29.7536 6.83696 28.7846 6.83696ZM23.9734 3.2861C23.8321 3.28624 23.6966 3.34245 23.5966 3.44238C23.4967 3.54232 23.4405 3.67782 23.4404 3.81915V5.07938C23.4405 5.22071 23.4967 5.35621 23.5966 5.45614C23.6966 5.55608 23.8321 5.61228 23.9734 5.61243H28.7846C28.9259 5.61228 29.0614 5.55608 29.1613 5.45614C29.2613 5.35621 29.3175 5.22071 29.3176 5.07938V3.81922C29.3175 3.6779 29.2613 3.5424 29.1613 3.44246C29.0614 3.34253 28.9259 3.28632 28.7846 3.28618L23.9734 3.2861Z" fill="#ADDE34"/>
<path d="M7.60453 31.2636C8.82724 31.2636 9.81844 30.2724 9.81844 29.0497C9.81844 27.827 8.82724 26.8358 7.60453 26.8358C6.38182 26.8358 5.39062 27.827 5.39062 29.0497C5.39062 30.2724 6.38182 31.2636 7.60453 31.2636Z" fill="#ADDE34"/>
</svg>
