<svg width="36" height="37" viewBox="0 0 36 37" fill="none" xmlns="http://www.w3.org/2000/svg">
<path d="M30.375 8.77925H27.166L25.9551 6.35748C24.9961 4.43949 23.0683 3.24805 20.9239 3.24805H15.0761C12.9317 3.24805 11.0038 4.43949 10.0448 6.35748L8.83392 8.77925H5.625C2.52338 8.77925 0 11.3026 0 14.4043V28.1269C0 31.2286 2.52338 33.7519 5.625 33.7519H30.375C33.4766 33.7519 36 31.2286 36 28.1269V14.4043C36 11.3026 33.4766 8.77925 30.375 8.77925ZM33.1875 28.1269C33.1875 29.6777 31.9258 30.9394 30.375 30.9394H5.625C4.07419 30.9394 2.8125 29.6777 2.8125 28.1269V14.4043C2.8125 12.8534 4.07419 11.5918 5.625 11.5918H9.70312C10.2358 11.5918 10.7227 11.2908 10.9609 10.8144L12.5606 7.61523C13.04 6.65623 14.0039 6.06048 15.0761 6.06048H20.9239C21.9961 6.06048 22.9601 6.65623 23.4395 7.61523L25.0391 10.8144C25.1559 11.048 25.3354 11.2444 25.5576 11.3817C25.7797 11.519 26.0357 11.5918 26.2969 11.5918H30.375C31.9258 11.5918 33.1875 12.8534 33.1875 14.4043V28.1269ZM18 12.9043C14.1746 12.9043 11.0625 16.0164 11.0625 19.8418C11.0625 23.6671 14.1746 26.7793 18 26.7793C21.8254 26.7793 24.9375 23.6671 24.9375 19.8418C24.9375 16.0164 21.8254 12.9043 18 12.9043ZM18 23.9668C15.7255 23.9668 13.875 22.1163 13.875 19.8417C13.875 17.5672 15.7255 15.7167 18 15.7167C20.2745 15.7167 22.125 17.5672 22.125 19.8417C22.125 22.1163 20.2745 23.9668 18 23.9668Z" fill="white"/>
</svg>
