<svg width="20" height="22" viewBox="0 0 20 22" fill="none" xmlns="http://www.w3.org/2000/svg">
<path d="M19.3337 3.41749C19.3107 3.33644 19.2605 3.26578 19.1915 3.21731C19.1226 3.16885 19.0391 3.14552 18.955 3.15124C9.90737 3.41599 3.67862 9.32299 2.785 17.1462C2.78182 17.2159 2.79785 17.285 2.83133 17.3462C2.86481 17.4073 2.91445 17.4581 2.97483 17.4929C3.03522 17.5278 3.10401 17.5453 3.17371 17.5437C3.2434 17.5421 3.3113 17.5213 3.37 17.4837L11.77 11.84C9.91661 14.6831 7.46284 17.0857 4.58125 18.8787C3.299 19.6621 1.93136 20.2962 0.504999 20.7687C0.412054 20.8013 0.335619 20.869 0.292171 20.9574C0.248724 21.0458 0.241745 21.1477 0.272738 21.2412C0.303732 21.3346 0.370215 21.4122 0.457856 21.4571C0.545497 21.502 0.647275 21.5107 0.741249 21.4812C2.15721 21.0102 3.51772 20.3866 4.79875 19.6212C8.335 21.4925 12.16 19.9737 12.325 19.9062C22.81 15.5712 19.3712 3.53749 19.3337 3.41749Z" fill="white"/>
<path d="M2.5713 14.3937C3.48919 11.1237 5.40602 8.22219 8.0538 6.09496C7.64017 3.75909 6.02355 1.18321 3.8313 0.518713C3.76995 0.4988 3.70447 0.495244 3.64134 0.508398C3.5782 0.521552 3.51958 0.55096 3.4713 0.593713C0.882297 2.84521 -2.16795 9.12459 2.5713 14.3937Z" fill="#ADDE34"/>
</svg>
