<svg width="22" height="20" viewBox="0 0 22 20" fill="none" xmlns="http://www.w3.org/2000/svg">
<path d="M15.9314 0.988892H2.67701C1.3955 0.988892 0.358521 2.0304 0.358521 3.31191V10.5617C0.358521 11.2047 0.616634 11.7844 1.03777 12.2055C1.45437 12.6266 2.03399 12.8847 2.67701 12.8847C2.83097 12.8847 2.94871 13.0206 2.92607 13.1791L2.53663 15.6787C2.49588 15.9232 2.78569 16.0681 2.95777 15.8961L5.96003 12.9572C6.00984 12.9119 6.06871 12.8847 6.13663 12.8847H15.9314C17.2129 12.8847 18.2544 11.8478 18.2544 10.5617V3.31191C18.2544 2.0304 17.2129 0.988892 15.9314 0.988892ZM5.66569 6.73983L5.02267 7.36474C4.96833 7.41908 4.94116 7.50059 4.95475 7.57757L5.10871 8.46059C5.14041 8.65078 4.93663 8.80021 4.76456 8.70965L3.96758 8.29304C3.93413 8.2752 3.89681 8.26587 3.8589 8.26587C3.82099 8.26587 3.78367 8.2752 3.75022 8.29304L2.94871 8.70965C2.77663 8.80021 2.57286 8.65531 2.60909 8.46059L2.75852 7.57757C2.76481 7.53995 2.76192 7.50136 2.75009 7.46509C2.73827 7.42883 2.71786 7.39595 2.6906 7.36927L2.04758 6.73983C2.0159 6.70869 1.99351 6.66935 1.9829 6.62621C1.97229 6.58307 1.97389 6.53783 1.98752 6.49555C2.00114 6.45327 2.02626 6.41561 2.06005 6.38678C2.09385 6.35794 2.135 6.33908 2.1789 6.33229L3.06645 6.2055C3.14343 6.19644 3.21135 6.14663 3.24758 6.0787L3.64607 5.26814C3.73211 5.09153 3.98569 5.09153 4.07173 5.26814L4.46569 6.0787C4.50192 6.14663 4.56984 6.19644 4.64682 6.2055L5.53437 6.33229C5.72909 6.36399 5.80607 6.59946 5.66569 6.73983ZM11.1132 6.73983L10.4702 7.36474C10.4159 7.41908 10.3887 7.50059 10.4023 7.57757L10.5563 8.46059C10.588 8.65078 10.3887 8.80021 10.2121 8.70965L9.41512 8.29304C9.38168 8.2752 9.34435 8.26587 9.30645 8.26587C9.26854 8.26587 9.23121 8.2752 9.19777 8.29304L8.40079 8.70965C8.22418 8.80021 8.02494 8.65531 8.05663 8.46059L8.20607 7.57757C8.21236 7.53995 8.20947 7.50136 8.19764 7.46509C8.18582 7.42883 8.1654 7.39595 8.13814 7.36927L7.49512 6.73983C7.46345 6.70869 7.44105 6.66935 7.43045 6.62621C7.41984 6.58307 7.42144 6.53783 7.43506 6.49555C7.44869 6.45327 7.4738 6.41561 7.5076 6.38678C7.5414 6.35794 7.58254 6.33908 7.62645 6.33229L8.51399 6.2055C8.59097 6.19644 8.6589 6.14663 8.69512 6.0787L9.09362 5.26814C9.17965 5.09153 9.43324 5.09153 9.51928 5.26814L9.91324 6.0787C9.94946 6.14663 10.0174 6.19644 10.0944 6.2055L10.9819 6.33229C11.1766 6.36399 11.2536 6.59946 11.1132 6.73983ZM16.5608 6.73983L15.9178 7.36474C15.8634 7.41908 15.8408 7.50059 15.8544 7.57757L16.0038 8.46059C16.04 8.65078 15.8363 8.80021 15.6597 8.70965L14.8672 8.29304C14.8329 8.27519 14.7949 8.26586 14.7563 8.26586C14.7176 8.26586 14.6796 8.27519 14.6453 8.29304L13.8483 8.70965C13.6763 8.80021 13.4725 8.65531 13.5042 8.46059L13.6536 7.57757C13.6599 7.53995 13.657 7.50136 13.6452 7.46509C13.6334 7.42883 13.613 7.39595 13.5857 7.36927L12.9427 6.73983C12.911 6.70869 12.8886 6.66935 12.878 6.62621C12.8674 6.58307 12.869 6.53783 12.8826 6.49555C12.8962 6.45327 12.9214 6.41561 12.9551 6.38678C12.9889 6.35794 13.0301 6.33908 13.074 6.33229L13.9661 6.2055C14.043 6.19644 14.1064 6.14663 14.1427 6.0787L14.5412 5.26814C14.6317 5.09153 14.8808 5.09153 14.9668 5.26814L15.3653 6.0787C15.3817 6.11296 15.4065 6.14253 15.4374 6.16468C15.4683 6.18684 15.5042 6.20088 15.5419 6.2055L16.4295 6.33229C16.6242 6.36399 16.7012 6.59946 16.5608 6.73983Z" fill="white"/>
<path d="M21.6416 6.35036V13.6047C21.6416 14.2477 21.3789 14.8273 20.9623 15.2485C20.5412 15.6651 19.9571 15.9232 19.3186 15.9232C19.1646 15.9232 19.0469 16.0636 19.074 16.2175L19.4589 18.7172C19.4997 18.9617 19.2099 19.1066 19.0378 18.939L16.0355 15.9956C15.9869 15.9516 15.9245 15.926 15.8589 15.9232H6.06423C5.548 15.9232 5.07253 15.7556 4.68762 15.4704L6.40385 13.7904H15.9314C17.711 13.7904 19.1601 12.3413 19.1601 10.5617V4.02734H19.3186C20.6001 4.02734 21.6416 5.06433 21.6416 6.35036Z" fill="#ADDE34"/>
</svg>
