<svg width="24" height="24" viewBox="0 0 24 24" fill="none" xmlns="http://www.w3.org/2000/svg">
<path d="M23.5972 10.9253L19.9598 7.288V3.08629C19.9598 2.32656 19.3442 1.71086 18.5833 1.71086C17.8242 1.71086 17.2086 2.32656 17.2086 3.08629V4.53681L14.5003 1.82844C13.1613 0.490168 10.8333 0.492542 9.49731 1.83086L0.402658 10.9253C-0.134219 11.4633 -0.134219 12.3337 0.402658 12.8708C0.939778 13.4086 1.8119 13.4086 2.34883 12.8708L11.4426 3.77611C11.7389 3.48141 12.261 3.48141 12.5557 3.77524L21.651 12.8708C21.7787 12.9986 21.9304 13.1 22.0973 13.1691C22.2643 13.2382 22.4432 13.2737 22.6239 13.2735C22.9761 13.2735 23.3283 13.1396 23.5972 12.8708C24.1343 12.3337 24.1343 11.4633 23.5972 10.9253Z" fill="#ADDE34"/>
<path d="M12.4778 6.38702C12.2136 6.12295 11.7857 6.12295 11.5223 6.38702L3.52261 14.3843C3.39585 14.5113 3.32467 14.6834 3.32471 14.8628V20.6958C3.32471 22.0645 4.43451 23.1743 5.8032 23.1743H9.76385V17.0405H14.2354V23.1743H18.196C19.5647 23.1743 20.6745 22.0645 20.6745 20.6958V14.8628C20.6745 14.6829 20.6035 14.5106 20.4766 14.3843L12.4778 6.38702Z" fill="white"/>
</svg>
