<svg width="28" height="33" viewBox="0 0 28 33" fill="none" xmlns="http://www.w3.org/2000/svg">
<path d="M15.4017 31.024L15.4017 31.024C14.7831 31.5666 13.881 31.5666 13.2625 31.024L13.2624 31.024C11.9252 29.8511 9.04675 27.2146 6.4987 24.1242C5.22477 22.579 4.02374 20.9091 3.1391 19.2422C2.25792 17.5816 1.66883 15.8838 1.66883 14.2933C1.66883 7.08134 7.33747 1.23304 14.3321 1.23304C21.3266 1.23304 26.9953 7.08134 26.9953 14.2933C26.9953 15.8838 26.4062 17.5815 25.525 19.2421C24.6404 20.9091 23.4393 22.579 22.1654 24.1242C19.6174 27.2146 16.7389 29.8511 15.4017 31.024Z" fill="#059144" stroke="white" stroke-width="1.46657"/>
</svg>
