<svg width="34" height="40" viewBox="0 0 34 40" fill="none" xmlns="http://www.w3.org/2000/svg">
<path d="M33.1719 40.0001H9.65723C9.57435 40.0001 9.49486 39.9671 9.43626 39.9085C9.37765 39.8499 9.34473 39.7704 9.34473 39.6876V6.01318C9.34473 5.9303 9.37765 5.85082 9.43626 5.79221C9.49486 5.73361 9.57435 5.70068 9.65723 5.70068H33.1719C33.2548 5.70068 33.3343 5.73361 33.3929 5.79221C33.4515 5.85082 33.4844 5.9303 33.4844 6.01318V39.6876C33.4844 39.7704 33.4515 39.8499 33.3929 39.9085C33.3343 39.9671 33.2548 40.0001 33.1719 40.0001Z" fill="#317153"/>
<path d="M28.6261 37.9512H5.11328C5.0304 37.9512 4.95092 37.9183 4.89231 37.8597C4.83371 37.8011 4.80078 37.7216 4.80078 37.6387V3.96436C4.80078 3.88148 4.83371 3.80199 4.89231 3.74338C4.95092 3.68478 5.0304 3.65186 5.11328 3.65186H28.6261C28.709 3.65186 28.7885 3.68478 28.8471 3.74338C28.9057 3.80199 28.9386 3.88148 28.9386 3.96436V37.6387C28.9386 37.7216 28.9057 37.8011 28.8471 37.8597C28.7885 37.9183 28.709 37.9512 28.6261 37.9512Z" fill="#60B48D"/>
<path d="M17.1182 25.4732H8.07715C7.92175 25.4732 7.77271 25.4115 7.66283 25.3016C7.55294 25.1917 7.49121 25.0426 7.49121 24.8872C7.49121 24.7318 7.55294 24.5828 7.66283 24.4729C7.77271 24.363 7.92175 24.3013 8.07715 24.3013H17.1182C17.2736 24.3013 17.4227 24.363 17.5326 24.4729C17.6424 24.5828 17.7042 24.7318 17.7042 24.8872C17.7042 25.0426 17.6424 25.1917 17.5326 25.3016C17.4227 25.4115 17.2736 25.4732 17.1182 25.4732ZM17.1182 28.7126H8.07715C7.92175 28.7126 7.77271 28.6509 7.66283 28.541C7.55294 28.4311 7.49121 28.2821 7.49121 28.1267C7.49121 27.9713 7.55294 27.8223 7.66283 27.7124C7.77271 27.6025 7.92175 27.5408 8.07715 27.5408H17.1182C17.2736 27.5408 17.4227 27.6025 17.5326 27.7124C17.6424 27.8223 17.7042 27.9713 17.7042 28.1267C17.7042 28.2821 17.6424 28.4311 17.5326 28.541C17.4227 28.6509 17.2736 28.7126 17.1182 28.7126ZM17.1182 31.9519H8.07715C7.92175 31.9519 7.77271 31.8902 7.66283 31.7803C7.55294 31.6704 7.49121 31.5214 7.49121 31.366C7.49121 31.2106 7.55294 31.0616 7.66283 30.9517C7.77271 30.8418 7.92175 30.7801 8.07715 30.7801H17.1182C17.2736 30.7801 17.4227 30.8418 17.5326 30.9517C17.6424 31.0616 17.7042 31.2106 17.7042 31.366C17.7042 31.5214 17.6424 31.6704 17.5326 31.7803C17.4227 31.8902 17.2736 31.9519 17.1182 31.9519ZM17.1182 35.1914H8.07715C7.92175 35.1914 7.77271 35.1297 7.66283 35.0198C7.55294 34.9099 7.49121 34.7608 7.49121 34.6054C7.49121 34.45 7.55294 34.301 7.66283 34.1911C7.77271 34.0812 7.92175 34.0195 8.07715 34.0195H17.1182C17.2736 34.0195 17.4227 34.0812 17.5326 34.1911C17.6424 34.301 17.7042 34.45 17.7042 34.6054C17.7042 34.7608 17.6424 34.9099 17.5326 35.0198C17.4227 35.1297 17.2736 35.1914 17.1182 35.1914ZM25.7396 14.3569H22.5053C22.1816 14.3569 21.9193 14.0946 21.9193 13.771C21.9193 13.4474 22.1816 13.1851 22.5053 13.1851H25.7396C26.0633 13.1851 26.3256 13.4474 26.3256 13.771C26.3256 14.0946 26.0633 14.3569 25.7396 14.3569ZM25.7396 35.1914H22.5053C22.1816 35.1914 21.9193 34.929 21.9193 34.6054C21.9193 34.2819 22.1816 34.0195 22.5053 34.0195H25.7396C26.0633 34.0195 26.3256 34.2819 26.3256 34.6054C26.3256 34.929 26.0633 35.1914 25.7396 35.1914ZM25.7396 31.8393H22.5053C22.1816 31.8393 21.9193 31.5769 21.9193 31.2533C21.9193 30.9297 22.1816 30.6674 22.5053 30.6674H25.7396C26.0633 30.6674 26.3256 30.9297 26.3256 31.2533C26.3256 31.5769 26.0633 31.8393 25.7396 31.8393Z" fill="#ADDE34"/>
<path d="M22.5059 6.7406H25.7402V11.5772H22.5059V6.7406Z" fill="#317153"/>
<path d="M20.5837 18.3961L18.8957 20.0856L14.9844 16.1708L16.6723 14.4813L20.5837 18.3961Z" fill="#022213"/>
<path d="M16.5428 2.75227C20.2092 6.42195 20.2092 12.3717 16.5428 16.0414C12.8764 19.7111 6.93194 19.7111 3.26546 16.0414C-0.401025 12.3717 -0.400947 6.42195 3.26546 2.75227C6.93187 -0.917422 12.8763 -0.917422 16.5428 2.75227Z" fill="#ADDE34"/>
<path d="M14.9478 4.34835C17.7335 7.13656 17.7335 11.657 14.9478 14.4452C12.1621 17.2334 7.64549 17.2334 4.85979 14.4452C2.07408 11.657 2.07408 7.13656 4.85979 4.34835C7.64549 1.56015 12.162 1.56015 14.9478 4.34835Z" fill="#317153"/>
<path d="M13.8107 5.48659C15.9684 7.64612 15.9684 11.1475 13.8107 13.3071C11.6531 15.4666 8.1548 15.4666 5.99715 13.3071C3.83949 11.1475 3.83949 7.64612 5.99715 5.48659C8.1548 3.32706 11.6531 3.32706 13.8107 5.48659Z" fill="#317153"/>
<path d="M31.5496 28.6004L29.0913 31.0608C29.0614 31.0907 29.0259 31.1145 28.9869 31.1306C28.9478 31.1468 28.9059 31.1552 28.8637 31.1552C28.8214 31.1552 28.7795 31.1468 28.7404 31.1306C28.7014 31.1145 28.6659 31.0907 28.636 31.0608L17.5053 19.9203C17.445 19.86 17.4111 19.7782 17.4111 19.6929C17.4111 19.6076 17.445 19.5258 17.5053 19.4654L19.9636 17.005C19.9935 16.9751 20.029 16.9513 20.068 16.9352C20.1071 16.919 20.1489 16.9106 20.1912 16.9106C20.2335 16.9106 20.2754 16.919 20.3144 16.9352C20.3535 16.9513 20.389 16.9751 20.4189 17.005L31.5496 28.1455C31.6099 28.2058 31.6438 28.2877 31.6438 28.3729C31.6438 28.4582 31.6099 28.54 31.5496 28.6004Z" fill="#022213"/>
<path d="M19.9636 17.0047L19.0703 17.8988L30.6559 29.4947L31.5491 28.6006C31.6095 28.5402 31.6434 28.4583 31.6434 28.3729C31.6434 28.2876 31.6095 28.2057 31.5491 28.1453L20.4185 17.0047C20.3887 16.9748 20.3532 16.9511 20.3142 16.9349C20.2751 16.9187 20.2333 16.9104 20.1911 16.9104C20.1488 16.9104 20.107 16.9187 20.0679 16.9349C20.0289 16.9511 19.9934 16.9748 19.9636 17.0047Z" fill="#022213"/>
<path d="M25.5201 22.1102L22.6068 25.0262L20.6504 23.068L23.5637 20.1521L25.5201 22.1102Z" fill="#ADDE34"/>
<path d="M25.5197 22.1102L24.3988 23.2322L22.4424 21.2741L23.5633 20.1521L25.5197 22.1102Z" fill="#317153"/>
</svg>
