<svg width="16" height="16" viewBox="0 0 16 16" fill="none" xmlns="http://www.w3.org/2000/svg">
<path d="M0.0900879 8.00008C0.0900879 8.68662 0.848892 9.26476 1.01872 9.89529C1.18855 10.5258 0.838052 11.4273 1.15964 12.0001C1.48123 12.5728 2.44238 12.7047 2.91392 13.1762C3.38547 13.6478 3.50832 14.5926 4.08826 14.9287C4.66821 15.2647 5.5336 14.8962 6.19485 15.0714C6.85609 15.2467 7.40351 16 8.09005 16C8.77659 16 9.35472 15.2412 9.98525 15.0714C10.6158 14.9016 11.5173 15.2521 12.09 14.9287C12.6627 14.6053 12.7928 13.6478 13.2662 13.1762C13.7395 12.7047 14.6826 12.5818 15.0187 12.0019C15.3547 11.4219 14.9861 10.5565 15.1614 9.89529C15.3366 9.23404 16.09 8.68662 16.09 8.00008C16.09 7.31355 15.3312 6.73541 15.1614 6.10488C14.9916 5.47435 15.342 4.57282 15.0187 3.9983C14.6953 3.42377 13.7413 3.30273 13.2662 2.82396C12.791 2.34519 12.6718 1.40752 12.09 1.07148C11.5083 0.735439 10.6447 1.104 9.98525 0.928754C9.32582 0.753506 8.77478 0.00012207 8.09005 0.00012207C7.40532 0.00012207 6.82538 0.758926 6.19485 0.928754C5.56432 1.09858 4.66098 0.739053 4.08826 1.06967C3.51555 1.4003 3.38547 2.35241 2.91392 2.82396C2.44238 3.2955 1.49749 3.41835 1.15964 3.9983C0.821792 4.57824 1.19216 5.44364 1.01872 6.10488C0.845278 6.76612 0.0900879 7.31355 0.0900879 8.00008Z" fill="#005F54"/>
<path d="M7.05663 11.039C7.27214 11.0386 7.47872 10.9528 7.63115 10.8005L12.081 6.34884C12.2334 6.19623 12.3189 5.98934 12.3187 5.77368C12.3185 5.55802 12.2327 5.35127 12.0801 5.19889C11.9275 5.04652 11.7206 4.96101 11.5049 4.96118C11.2893 4.96135 11.0825 5.04718 10.9301 5.1998L7.05663 9.08415L4.98979 7.01009C4.91422 6.93452 4.82451 6.87458 4.72578 6.83368C4.62705 6.79279 4.52123 6.77174 4.41436 6.77174C4.30749 6.77174 4.20167 6.79279 4.10294 6.83368C4.00421 6.87458 3.9145 6.93452 3.83893 7.01009C3.76337 7.08565 3.70343 7.17536 3.66253 7.27409C3.62163 7.37282 3.60059 7.47865 3.60059 7.58551C3.60059 7.69238 3.62163 7.7982 3.66253 7.89693C3.70343 7.99566 3.76337 8.08537 3.83893 8.16094L6.4803 10.8005C6.55599 10.8761 6.64585 10.9361 6.74474 10.9771C6.84363 11.018 6.94961 11.039 7.05663 11.039Z" fill="#FFF7ED"/>
</svg>
