<svg width="32" height="37" viewBox="0 0 32 37" fill="none" xmlns="http://www.w3.org/2000/svg">
<path d="M19.2485 0.5H5.81182C4.51807 0.5 3.46338 1.55469 3.46338 2.85547V34.1516C3.46338 35.4523 4.51807 36.5 5.81885 36.507H29.4087C30.7095 36.507 31.7571 35.4523 31.7642 34.1516L31.6938 10.9062L19.2485 0.5Z" fill="#ADDE34"/>
<path d="M19.2486 0.5L19.2135 10.6602C19.2135 10.6602 19.2486 10.9062 19.4596 10.9062H31.6939L19.2486 0.5ZM1.19941 17.8461H24.9369C25.4643 17.8461 25.8932 18.275 25.8932 18.8023V29.4055C25.8932 29.9328 25.4643 30.3617 24.9369 30.3617H1.19941C0.67207 30.3617 0.243164 29.9328 0.243164 29.4055V18.8023C0.243164 18.275 0.67207 17.8461 1.19941 17.8461Z" fill="#157749"/>
<path d="M4.35664 25.8335H2.60586L2.3668 26.6562H0.798828L2.66914 21.6781H4.34961L6.21992 26.6562H4.60273L4.35664 25.8335ZM4.0332 24.7578L3.48477 22.9648L2.94336 24.7578H4.0332ZM9.70742 21.6781H11.2402V24.6453C11.2402 24.9265 11.191 25.2078 11.0996 25.482C11.0082 25.7421 10.8605 25.9742 10.6707 26.171C10.4949 26.3539 10.284 26.4945 10.052 26.5859C9.70742 26.7054 9.3418 26.7617 8.97617 26.7546C8.70898 26.7546 8.44883 26.7335 8.18164 26.7054C7.92852 26.6843 7.68945 26.614 7.46445 26.5015C7.26055 26.396 7.08477 26.2484 6.93711 26.0726C6.78945 25.9039 6.67695 25.714 6.60664 25.496C6.52227 25.2218 6.47305 24.9406 6.46602 24.6523V21.6921H7.99883V24.7296C7.99883 25.0039 8.07617 25.2148 8.22383 25.3625C8.37148 25.5101 8.58242 25.5875 8.84961 25.5945C9.1168 25.5945 9.3207 25.5171 9.47539 25.3695C9.62305 25.2218 9.70039 25.0039 9.70039 24.7296L9.70742 21.6781ZM12.2809 21.6781H14.566C15.016 21.6781 15.3816 21.7414 15.6559 21.8609C15.923 21.9734 16.1621 22.1562 16.3449 22.3882C16.5277 22.6273 16.6613 22.8945 16.7387 23.1898C16.823 23.5062 16.8652 23.8296 16.8582 24.1531C16.8582 24.6875 16.7949 25.0953 16.6754 25.3906C16.5629 25.6718 16.3941 25.925 16.1691 26.1289C15.9723 26.3187 15.7332 26.4523 15.473 26.5226C15.1777 26.607 14.8684 26.6562 14.559 26.6562H12.2738L12.2809 21.6781ZM13.8207 22.8031V25.5242H14.2004C14.5238 25.5242 14.7488 25.489 14.8895 25.4187C15.0371 25.3343 15.1496 25.2007 15.2059 25.046C15.2832 24.8703 15.3184 24.582 15.3184 24.1812C15.3184 23.6539 15.234 23.2953 15.0582 23.0984C14.8895 22.9015 14.6012 22.8101 14.2004 22.8101H13.8207V22.8031ZM17.7301 21.6781H19.2699V26.6562H17.7301V21.6781ZM20.184 24.1671C20.184 23.3515 20.409 22.7187 20.866 22.2687C21.323 21.8187 21.9488 21.5867 22.7574 21.5867C23.5871 21.5867 24.227 21.8117 24.6699 22.2546C25.1129 22.6976 25.3449 23.3234 25.3449 24.125C25.3449 24.7085 25.2465 25.1796 25.0496 25.5593C24.8598 25.925 24.5645 26.2273 24.1988 26.4312C23.8262 26.6351 23.3691 26.7406 22.8137 26.7406C22.2512 26.7406 21.7871 26.6492 21.4215 26.4734C21.0418 26.2835 20.7324 25.9882 20.5285 25.6226C20.2965 25.2359 20.184 24.7507 20.184 24.1671ZM21.7168 24.1812C21.7168 24.6804 21.8082 25.046 21.998 25.264C22.1879 25.482 22.4691 25.6085 22.7645 25.5945C23.0949 25.5945 23.348 25.489 23.5309 25.271C23.7137 25.0531 23.8051 24.6734 23.798 24.1109C23.798 23.6398 23.7066 23.3023 23.5168 23.0843C23.327 22.8664 23.0738 22.7609 22.7504 22.7609C22.4621 22.7468 22.1879 22.8734 22.0051 23.0914C21.8152 23.3093 21.7168 23.6679 21.7168 24.1812Z" fill="white"/>
</svg>
