<svg width="36" height="35" viewBox="0 0 36 35" fill="none" xmlns="http://www.w3.org/2000/svg">
<path d="M10.8001 2.49998H3.6001C3.44097 2.49998 3.28836 2.56319 3.17583 2.67571C3.06331 2.78823 3.0001 2.94085 3.0001 3.09998V10.3C3.0001 10.4591 2.93688 10.6117 2.82436 10.7242C2.71184 10.8368 2.55923 10.9 2.4001 10.9H1.2001C1.04097 10.9 0.888355 10.8368 0.775834 10.7242C0.663312 10.6117 0.600098 10.4591 0.600098 10.3V1.29998C0.600098 0.981716 0.726526 0.676491 0.95157 0.451447C1.17661 0.226404 1.48184 0.0999756 1.8001 0.0999756H10.8001C10.9592 0.0999756 11.1118 0.16319 11.2244 0.275711C11.3369 0.388233 11.4001 0.540846 11.4001 0.699976V1.89998C11.4001 2.05911 11.3369 2.21172 11.2244 2.32424C11.1118 2.43676 10.9592 2.49998 10.8001 2.49998ZM25.2001 2.49998H32.4001C32.5592 2.49998 32.7118 2.56319 32.8244 2.67571C32.9369 2.78823 33.0001 2.94085 33.0001 3.09998V10.3C33.0001 10.4591 33.0633 10.6117 33.1758 10.7242C33.2884 10.8368 33.441 10.9 33.6001 10.9H34.8001C34.9592 10.9 35.1118 10.8368 35.2244 10.7242C35.3369 10.6117 35.4001 10.4591 35.4001 10.3V1.29998C35.4001 0.981716 35.2737 0.676491 35.0486 0.451447C34.8236 0.226404 34.5184 0.0999756 34.2001 0.0999756H25.2001C25.041 0.0999756 24.8884 0.16319 24.7758 0.275711C24.6633 0.388233 24.6001 0.540846 24.6001 0.699976V1.89998C24.6001 2.05911 24.6633 2.21172 24.7758 2.32424C24.8884 2.43676 25.041 2.49998 25.2001 2.49998ZM10.8001 32.5H3.6001C3.44097 32.5 3.28836 32.4368 3.17583 32.3242C3.06331 32.2117 3.0001 32.0591 3.0001 31.9V24.7C3.0001 24.5408 2.93688 24.3882 2.82436 24.2757C2.71184 24.1632 2.55923 24.1 2.4001 24.1H1.2001C1.04097 24.1 0.888355 24.1632 0.775834 24.2757C0.663312 24.3882 0.600098 24.5408 0.600098 24.7V33.7C0.600098 34.0182 0.726526 34.3235 0.95157 34.5485C1.17661 34.7735 1.48184 34.9 1.8001 34.9H10.8001C10.9592 34.9 11.1118 34.8368 11.2244 34.7242C11.3369 34.6117 11.4001 34.4591 11.4001 34.3V33.1C11.4001 32.9408 11.3369 32.7882 11.2244 32.6757C11.1118 32.5632 10.9592 32.5 10.8001 32.5ZM25.2001 32.5H32.4001C32.5592 32.5 32.7118 32.4368 32.8244 32.3242C32.9369 32.2117 33.0001 32.0591 33.0001 31.9V24.7C33.0001 24.5408 33.0633 24.3882 33.1758 24.2757C33.2884 24.1632 33.441 24.1 33.6001 24.1H34.8001C34.9592 24.1 35.1118 24.1632 35.2244 24.2757C35.3369 24.3882 35.4001 24.5408 35.4001 24.7V33.7C35.4001 34.0182 35.2737 34.3235 35.0486 34.5485C34.8236 34.7735 34.5184 34.9 34.2001 34.9H25.2001C25.041 34.9 24.8884 34.8368 24.7758 34.7242C24.6633 34.6117 24.6001 34.4591 24.6001 34.3V33.1C24.6001 32.9408 24.6633 32.7882 24.7758 32.6757C24.8884 32.5632 25.041 32.5 25.2001 32.5Z" fill="#317153"/>
<path d="M21.0032 27.1C19.8242 27.1 19.535 25.1674 18.9002 17.5516C18.6704 14.7982 18.371 11.2102 17.9966 9.68082C17.6228 11.2102 17.324 14.7982 17.0966 17.5516C16.46 25.1668 16.1708 27.1 15.0002 27.1C13.8062 27.1 13.5098 25.06 12.9044 18.7564C12.683 16.4506 12.3644 13.1416 11.9816 11.878C11.5557 13.752 11.2608 15.6534 11.099 17.5684C10.496 22.8514 10.1804 24.7 9.00023 24.7C7.78463 24.7 7.44563 22.6708 6.90623 18.7828C6.74144 17.2658 6.46529 15.7629 6.08003 14.2864C5.84303 15.0724 5.58023 16.546 5.39063 17.6056C4.76783 21.0934 4.50683 22.3 3.60023 22.3C2.66483 22.3 2.40983 21.1072 2.11343 19.726C2.02019 19.1621 1.86464 18.6104 1.64963 18.0808C1.50831 18.0442 1.3852 17.9573 1.30335 17.8364C1.22151 17.7155 1.18655 17.5689 1.20502 17.4241C1.22349 17.2793 1.29412 17.1462 1.40369 17.0497C1.51326 16.9532 1.65424 16.9 1.80023 16.9C2.73563 16.9 2.99063 18.0928 3.28703 19.474C3.35603 19.7962 3.45143 20.2426 3.55343 20.6002C3.78143 19.7914 4.02923 18.4048 4.20983 17.3944C4.83263 13.9066 5.09363 12.7 6.00023 12.7C7.21583 12.7 7.55483 14.7292 8.09423 18.6172C8.31083 20.1772 8.62223 22.4164 8.97503 23.2558C9.35603 22.2574 9.68003 19.405 9.90443 17.4322C10.5044 12.1486 10.82 10.3 12.0002 10.3C13.1936 10.3 13.49 12.34 14.0954 18.64C14.2577 20.9038 14.553 23.1561 14.9798 25.3852C15.362 23.8966 15.6656 20.2432 15.8984 17.4502C16.5338 9.83322 16.8224 7.90002 17.9966 7.90002C19.1708 7.90002 19.4606 9.83323 20.0966 17.4514C20.33 20.2504 20.6366 23.9128 21.0182 25.3954C21.4471 23.1632 21.743 20.9074 21.9044 18.64C22.5104 12.34 22.8062 10.3 24.0002 10.3C25.1804 10.3 25.496 12.1486 26.096 17.4322C26.3204 19.405 26.6444 22.2574 27.0254 23.2558C27.3782 22.4158 27.6896 20.1748 27.9062 18.6172C28.4456 14.7292 28.7846 12.7 30.0002 12.7C30.9068 12.7 31.1678 13.9066 31.7906 17.3944C31.9706 18.4048 32.219 19.7944 32.447 20.6002C32.549 20.2402 32.6444 19.7962 32.7134 19.474C33.0098 18.094 33.2648 16.9 34.2002 16.9C34.3462 16.9 34.4872 16.9532 34.5968 17.0497C34.7063 17.1462 34.777 17.2793 34.7954 17.4241C34.8139 17.5689 34.7789 17.7155 34.6971 17.8364C34.6153 17.9573 34.4921 18.0442 34.3508 18.0808C34.1358 18.6104 33.9803 19.1621 33.887 19.726C33.5906 21.1072 33.3356 22.3 32.4002 22.3C31.4936 22.3 31.2326 21.0934 30.6098 17.6056C30.4202 16.546 30.1574 15.0724 29.9204 14.2864C29.5352 15.7629 29.259 17.2658 29.0942 18.7828C28.5548 22.6708 28.2158 24.7 27.0002 24.7C25.82 24.7 25.5044 22.8514 24.9044 17.5678C24.7427 15.6528 24.4478 13.7514 24.0218 11.8774C23.6402 13.141 23.3204 16.4506 23.1002 18.76C22.493 25.06 22.1972 27.1 21.0032 27.1Z" fill="#ADDE34"/>
<path d="M35.4 18.1H0.6C0.44087 18.1 0.288258 18.0368 0.175736 17.9243C0.0632141 17.8118 0 17.6592 0 17.5C0 17.3409 0.0632141 17.1883 0.175736 17.0758C0.288258 16.9632 0.44087 16.9 0.6 16.9H35.4C35.5591 16.9 35.7117 16.9632 35.8243 17.0758C35.9368 17.1883 36 17.3409 36 17.5C36 17.6592 35.9368 17.8118 35.8243 17.9243C35.7117 18.0368 35.5591 18.1 35.4 18.1Z" fill="#317153"/>
</svg>
