<svg width="36" height="31" viewBox="0 0 36 31" fill="none" xmlns="http://www.w3.org/2000/svg">
<path d="M30.0981 26.8224C30.0981 28.2209 29.6615 29.2931 28.8016 30.0082C26.991 31.5136 23.858 30.9321 21.0933 30.4188C19.9099 30.1988 18.7927 29.9913 18.0002 29.9913C17.0819 29.9913 15.8909 30.21 14.6294 30.4413C13.1859 30.7064 11.7164 30.9757 10.3938 30.9757C9.14999 30.9757 8.03554 30.7381 7.19109 30.0342C6.33609 29.322 5.90226 28.2413 5.90226 26.8224C5.90226 23.9023 7.20234 20.5892 9.37921 17.9609C11.8015 15.0359 14.8628 13.4258 18.0002 13.4258C21.1375 13.4258 24.1988 15.0359 26.6211 17.9609C28.798 20.5892 30.0981 23.9023 30.0981 26.8224ZM28.1315 6.51906C28.1315 8.18124 27.6829 9.75695 26.8687 10.9579C25.9827 12.2643 24.7136 13.0138 23.3868 13.0138C22.0607 13.0138 20.7916 12.2643 19.9056 10.9579C19.0914 9.75695 18.6428 8.18124 18.6428 6.51906C18.6428 4.85687 19.0914 3.28117 19.9056 2.08023C20.7916 0.773823 22.0607 0.024292 23.3868 0.024292C24.7136 0.024292 25.9827 0.773823 26.8687 2.08023C27.6829 3.28117 28.1315 4.85687 28.1315 6.51906ZM12.6134 13.0135C13.9399 13.0135 15.2089 12.2641 16.0951 10.9575C16.9092 9.75716 17.3576 8.18089 17.3576 6.51906C17.3576 4.85722 16.9092 3.28082 16.0951 2.08051C15.2089 0.773893 13.9399 0.0245731 12.6134 0.0245731C11.2869 0.0245731 10.0178 0.773964 9.13164 2.08051C8.31756 3.28082 7.86918 4.85715 7.86918 6.51906C7.86918 8.18096 8.31756 9.7573 9.13164 10.9576C10.0179 12.2642 11.2869 13.0135 12.6134 13.0135ZM36.0001 13.7773C36.0001 14.4566 35.8813 15.1569 35.6443 15.8347C35.1331 17.2979 34.1502 18.4602 32.9471 19.0227C32.45 19.2554 31.9311 19.3728 31.4227 19.3728C31.0395 19.3728 30.662 19.306 30.3048 19.1717C29.2712 18.7836 28.5055 17.9005 28.1483 16.6855C27.8249 15.5858 27.8769 14.3216 28.2952 13.1263C28.8064 11.6623 29.7894 10.5008 30.9917 9.93758C31.865 9.52907 32.803 9.47633 33.6348 9.78852C34.6677 10.1766 35.4334 11.0598 35.7906 12.2748C35.9305 12.7508 36.0001 13.2584 36.0001 13.7773ZM7.85203 16.6855C8.17525 15.586 8.12315 14.3219 7.70542 13.126C7.19418 11.6626 6.21114 10.5004 5.00845 9.93765C4.13566 9.52921 3.19713 9.47633 2.36575 9.78852C1.33258 10.1767 0.566807 11.0598 0.209549 12.275C-0.113677 13.3745 -0.0615756 14.6385 0.356151 15.8344C0.867463 17.2979 1.85043 18.4599 3.05313 19.0227C3.55066 19.2555 4.06949 19.3728 4.57764 19.3728C4.96099 19.3728 5.33828 19.306 5.69575 19.1718C6.72914 18.7838 7.49477 17.9008 7.85203 16.6855Z" fill="#ADDE34"/>
<path d="M19.9055 10.9579C19.0912 9.75695 18.6427 8.18124 18.6427 6.51906C18.6427 4.85687 19.0912 3.28117 19.9055 2.08023C20.7914 0.773823 22.0605 0.024292 23.3866 0.024292C24.7134 0.024292 25.9826 0.773823 26.8685 2.08023C27.6827 3.28117 28.1313 4.85687 28.1313 6.51906C28.1313 8.18124 27.6827 9.75695 26.8685 10.9579C25.9826 12.2643 24.7134 13.0138 23.3866 13.0138C22.0605 13.0138 20.7914 12.2642 19.9055 10.9579ZM26.6209 17.9609C28.7978 20.5892 30.0979 23.9023 30.0979 26.8224C30.0979 28.2209 29.6613 29.2931 28.8013 30.0082C26.9908 31.5136 23.8577 30.9321 21.093 30.4188C19.9097 30.1988 18.7924 29.9913 18 29.9913V13.4258C21.1373 13.4258 24.1987 15.0359 26.6209 17.9609ZM35.9999 13.7773C35.9999 14.4566 35.881 15.1569 35.6441 15.8347C35.1329 17.2979 34.1499 18.4602 32.9469 19.0227C32.4498 19.2554 31.9309 19.3728 31.4225 19.3728C31.0393 19.3728 30.6617 19.306 30.3045 19.1717C29.271 18.7836 28.5052 17.9005 28.1481 16.6855C27.8246 15.5858 27.8767 14.3216 28.295 13.1263C28.8062 11.6623 29.7892 10.5008 30.9915 9.93758C31.8648 9.52907 32.8027 9.47633 33.6345 9.78852C34.6674 10.1766 35.4331 11.0598 35.7903 12.2748C35.9302 12.7508 35.9999 13.2584 35.9999 13.7773Z" fill="#317153"/>
</svg>
