<svg width="36" height="31" viewBox="0 0 36 31" fill="none" xmlns="http://www.w3.org/2000/svg">
<path d="M7.10802 7.80469V2.66091C7.10802 2.22525 6.75484 1.87207 6.31918 1.87207H3.69069C3.25504 1.87207 2.90186 2.22525 2.90186 2.66091V7.80469" fill="#435054"/>
<path d="M4.81204 7.80469V1.87207H3.69069C3.25504 1.87207 2.90186 2.22525 2.90186 2.66091V7.80469" fill="#151E15"/>
<path d="M36 8.74222V27.9875C36 29.307 34.9303 30.3767 33.6108 30.3767H2.38922C1.06973 30.3767 0 29.307 0 27.9875V8.74222C0 7.42274 1.06973 6.35301 2.38922 6.35301H7.11352C8.13108 6.35301 9.03769 5.70866 9.37125 4.747L10.2433 2.22995C10.406 1.76071 10.7109 1.35382 11.1155 1.06586C11.5201 0.777888 12.0044 0.623155 12.5011 0.623169H26.438C27.4556 0.623169 28.3614 1.26822 28.695 2.22995L29.5677 4.747C29.7304 5.21605 30.0351 5.62276 30.4396 5.91059C30.8441 6.19842 31.3283 6.35306 31.8247 6.35301H33.6107C34.9303 6.35301 36 7.42274 36 8.74222Z" fill="#ADDE34"/>
<path d="M4.2627 30.3767H2.38922C1.06973 30.3767 0 29.307 0 27.9875V8.74222C0 7.42274 1.06973 6.35301 2.38922 6.35301H4.11427V6.35743C2.86383 6.43457 1.87348 7.47273 1.87348 8.74222V27.9875C1.87348 29.3071 2.94321 30.3767 4.2627 30.3767ZM14.3745 0.623169C13.8778 0.623165 13.3935 0.777903 12.9889 1.06587C12.5843 1.35383 12.2794 1.76072 12.1167 2.22995L11.2447 4.747C10.9111 5.70873 10.0045 6.35301 8.98692 6.35301H7.3838V6.33761C8.28893 6.23474 9.06771 5.62274 9.37111 4.747L10.2432 2.22995C10.4059 1.76071 10.7107 1.35382 11.1154 1.06586C11.52 0.777888 12.0043 0.623155 12.5009 0.623169H14.3745Z" fill="#ADDE34"/>
<path d="M36 12.8551V27.9876C36 29.3071 34.9303 30.3768 33.6108 30.3768H2.38922C1.06973 30.3768 0 29.3071 0 27.9876V12.8551H36Z" fill="#317153"/>
<path d="M4.2627 30.3768H2.38922C1.06973 30.3768 0 29.307 0 27.9875V12.8551H1.87348V27.9876C1.87348 29.3071 2.94321 30.3768 4.2627 30.3768Z" fill="#151E15"/>
<path d="M17.9998 28.136C23.4974 28.136 27.9541 23.6793 27.9541 18.1816C27.9541 12.684 23.4974 8.22729 17.9998 8.22729C12.5021 8.22729 8.04541 12.684 8.04541 18.1816C8.04541 23.6793 12.5021 28.136 17.9998 28.136Z" fill="#E5E9EA"/>
<path d="M25.0383 18.1816C25.0383 20.2542 24.1428 22.1174 22.7167 23.406C21.4685 24.5338 19.8154 25.2207 18 25.2207C16.1853 25.2207 14.5315 24.5337 13.2833 23.406C11.8573 22.1181 10.9609 20.2541 10.9609 18.1815C10.9609 16.1089 11.8573 14.245 13.2833 12.9579C14.5315 11.8294 16.1853 11.1432 18 11.1432C19.8154 11.1432 21.4685 11.8301 22.7167 12.9579C24.1428 14.2459 25.0383 16.109 25.0383 18.1816Z" fill="#4B6458"/>
<path d="M22.9765 13.2046C24.442 14.6701 25.1263 16.6209 25.0291 18.5405C23.1095 18.6376 21.1587 17.9534 19.6932 16.4879C18.2277 15.0224 17.5435 13.0716 17.6411 11.1526C19.5602 11.0549 21.511 11.7391 22.9765 13.2046ZM16.306 19.8751C17.7716 21.3407 18.4558 23.2914 18.3586 25.211C16.4395 25.3087 14.4877 24.6245 13.0222 23.1589C11.5567 21.6934 10.8725 19.7416 10.9707 17.8231C12.8898 17.7253 14.8405 18.4095 16.306 19.8751Z" fill="#133927"/>
<path d="M17.9998 25.7714C13.8149 25.7714 10.4102 22.3666 10.4102 18.1817C10.4102 13.9968 13.8149 10.592 17.9998 10.592C22.1848 10.592 25.5895 13.9967 25.5895 18.1817C25.5895 22.3667 22.1848 25.7714 17.9998 25.7714ZM17.9998 11.694C14.4225 11.694 11.5122 14.6044 11.5122 18.1817C11.5122 21.759 14.4225 24.6694 17.9998 24.6694C21.5771 24.6694 24.4875 21.759 24.4875 18.1817C24.4875 14.6044 21.5771 11.694 17.9998 11.694Z" fill="#151E15"/>
<path d="M17.9998 15.3562C16.4418 15.3562 15.1743 16.6237 15.1743 18.1818C15.1743 19.7398 16.4418 21.0073 17.9998 21.0073C19.5578 21.0073 20.8253 19.7398 20.8253 18.1818C20.8253 16.6238 19.5578 15.3562 17.9998 15.3562Z" fill="#435054"/>
<path d="M21.5757 5.80229H25.9058C26.475 5.80229 26.9365 5.34083 26.9365 4.77151V3.63723C26.9365 3.06798 26.4751 2.60645 25.9058 2.60645H21.5757C21.0065 2.60645 20.5449 3.06791 20.5449 3.63723V4.77151C20.5449 5.34076 21.0065 5.80229 21.5757 5.80229Z" fill="#151E15"/>
<path d="M25.906 6.35332H21.576C20.7037 6.35332 19.9941 5.64373 19.9941 4.7715V3.63736C19.9941 2.76514 20.7037 2.05554 21.576 2.05554H25.906C26.7782 2.05554 27.4878 2.76514 27.4878 3.63736V4.77157C27.4878 5.6438 26.7782 6.35332 25.906 6.35332ZM21.576 3.15755C21.4488 3.15768 21.3268 3.20827 21.2369 3.29821C21.1469 3.38815 21.0963 3.5101 21.0962 3.63729V4.7715C21.0963 4.8987 21.1469 5.02065 21.2369 5.11059C21.3268 5.20053 21.4488 5.25111 21.576 5.25125H25.906C26.0332 5.25111 26.1552 5.20053 26.2451 5.11059C26.335 5.02065 26.3856 4.8987 26.3858 4.7715V3.63736C26.3856 3.51017 26.335 3.38822 26.2451 3.29828C26.1552 3.20834 26.0332 3.15775 25.906 3.15762L21.576 3.15755Z" fill="#ADDE34"/>
<path d="M6.84359 28.3372C7.94403 28.3372 8.83611 27.4451 8.83611 26.3447C8.83611 25.2443 7.94403 24.3522 6.84359 24.3522C5.74315 24.3522 4.85107 25.2443 4.85107 26.3447C4.85107 27.4451 5.74315 28.3372 6.84359 28.3372Z" fill="#ADDE34"/>
</svg>
