<svg width="40" height="36" viewBox="0 0 40 36" fill="none" xmlns="http://www.w3.org/2000/svg">
<path d="M33.4424 30.5804C33.4424 32.1343 32.9572 33.3257 32.0017 34.1203C29.99 35.7929 26.5089 35.1468 23.437 34.5765C22.1221 34.332 20.8807 34.1015 20.0003 34.1015C18.9799 34.1015 17.6565 34.3445 16.2549 34.6015C14.651 34.8961 13.0182 35.1953 11.5487 35.1953C10.1667 35.1953 8.92838 34.9312 7.9901 34.1492C7.0401 33.3578 6.55807 32.157 6.55807 30.5804C6.55807 27.3359 8.0026 23.6547 10.4213 20.7344C13.1128 17.4844 16.5142 15.6954 20.0002 15.6954C23.4861 15.6954 26.8876 17.4844 29.579 20.7344C31.9978 23.6547 33.4424 27.3359 33.4424 30.5804ZM31.2572 8.02121C31.2572 9.86809 30.7588 11.6189 29.8541 12.9532C28.8697 14.4048 27.4596 15.2376 25.9853 15.2376C24.5119 15.2376 23.1017 14.4048 22.1174 12.9532C21.2127 11.6189 20.7142 9.86809 20.7142 8.02121C20.7142 6.17434 21.2127 4.42356 22.1174 3.08918C23.1017 1.63762 24.5119 0.80481 25.9853 0.80481C27.4596 0.80481 28.8697 1.63762 29.8541 3.08918C30.7588 4.42356 31.2572 6.17434 31.2572 8.02121ZM14.0149 15.2372C15.4888 15.2372 16.8988 14.4046 17.8835 12.9528C18.788 11.6191 19.2862 9.8677 19.2862 8.02121C19.2862 6.17473 18.788 4.42317 17.8835 3.0895C16.8988 1.6377 15.4888 0.805122 14.0149 0.805122C12.541 0.805122 11.1309 1.63778 10.1463 3.0895C9.24174 4.42317 8.74354 6.17465 8.74354 8.02121C8.74354 9.86778 9.24174 11.6193 10.1463 12.9529C11.131 14.4047 12.541 15.2372 14.0149 15.2372ZM40.0001 16.086C40.0001 16.8407 39.8681 17.6188 39.6048 18.3719C39.0368 19.9977 37.9446 21.2891 36.6079 21.9141C36.0556 22.1727 35.479 22.3032 34.9142 22.3032C34.4884 22.3032 34.0689 22.2289 33.672 22.0797C32.5235 21.6485 31.6728 20.6672 31.2759 19.3172C30.9165 18.0954 30.9743 16.6907 31.4392 15.3625C32.0071 13.736 33.0993 12.4454 34.4353 11.8196C35.4056 11.3657 36.4478 11.3071 37.372 11.6539C38.5196 12.0852 39.3704 13.0664 39.7673 14.4164C39.9228 14.9454 40.0001 15.5094 40.0001 16.086ZM8.72447 19.3172C9.08362 18.0956 9.02573 16.6911 8.56158 15.3622C7.99354 13.7362 6.90127 12.445 5.56494 11.8197C4.59518 11.3658 3.55236 11.3071 2.62861 11.6539C1.48065 12.0853 0.629786 13.0664 0.232833 14.4167C-0.126308 15.6383 -0.0684174 17.0429 0.395723 18.3716C0.963848 19.9977 2.05604 21.2889 3.39236 21.9142C3.94518 22.1729 4.52166 22.3032 5.08627 22.3032C5.51221 22.3032 5.93143 22.2289 6.32862 22.0798C7.47682 21.6487 8.32752 20.6675 8.72447 19.3172Z" fill="#ADDE34"/>
<path d="M22.1172 12.9532C21.2125 11.6189 20.7141 9.86809 20.7141 8.02121C20.7141 6.17434 21.2125 4.42356 22.1172 3.08918C23.1016 1.63762 24.5117 0.80481 25.9852 0.80481C27.4594 0.80481 28.8695 1.63762 29.8539 3.08918C30.7586 4.42356 31.257 6.17434 31.257 8.02121C31.257 9.86809 30.7586 11.6189 29.8539 12.9532C28.8695 14.4048 27.4594 15.2376 25.9852 15.2376C24.5117 15.2375 23.1016 14.4047 22.1172 12.9532ZM29.5788 20.7344C31.9976 23.6547 33.4421 27.3359 33.4421 30.5804C33.4421 32.1343 32.957 33.3257 32.0015 34.1203C29.9898 35.7929 26.5086 35.1468 23.4367 34.5765C22.1219 34.332 20.8805 34.1015 20 34.1015V15.6954C23.4859 15.6954 26.8875 17.4844 29.5788 20.7344ZM39.9998 16.086C39.9998 16.8407 39.8678 17.6188 39.6045 18.3719C39.0366 19.9977 37.9444 21.2891 36.6077 21.9141C36.0553 22.1727 35.4788 22.3032 34.9139 22.3032C34.4881 22.3032 34.0686 22.2289 33.6717 22.0797C32.5233 21.6485 31.6725 20.6672 31.2756 19.3172C30.9162 18.0954 30.9741 16.6907 31.4389 15.3625C32.0069 13.736 33.0991 12.4454 34.435 11.8196C35.4053 11.3657 36.4475 11.3071 37.3717 11.6539C38.5194 12.0852 39.3702 13.0664 39.767 14.4164C39.9225 14.9454 39.9998 15.5094 39.9998 16.086Z" fill="#317153"/>
</svg>
