<svg width="24" height="24" viewBox="0 0 24 24" fill="none" xmlns="http://www.w3.org/2000/svg">
<path d="M15.0001 18.5002C14.9978 17.4707 15.351 16.4719 16.0001 15.6727V13.3197C15.9398 13.2653 15.8726 13.2192 15.8001 13.1827C15.6712 13.1182 15.5291 13.0847 15.3851 13.0847C15.241 13.0847 15.0989 13.1182 14.9701 13.1827L14.6526 13.3417C14.5239 13.4068 14.3818 13.4411 14.2376 13.4417H14.2001C14.0051 13.4417 13.8152 13.3804 13.657 13.2664C13.4989 13.1525 13.3807 12.9916 13.3191 12.8067L13.1146 12.1922C13.0822 12.0975 13.0654 11.9983 13.0646 11.8982V11.1502C13.0645 10.9973 13.1022 10.8468 13.1743 10.7121C13.2465 10.5773 13.3508 10.4624 13.4781 10.3777L14.3236 9.81371C14.4122 9.75478 14.5103 9.71149 14.6136 9.68571L16.0001 9.33971V4.50021C16.0004 4.27629 16.0224 4.05293 16.0656 3.83321C14.6184 2.89003 12.9467 2.34824 11.2214 2.26327C9.49615 2.1783 7.77928 2.55321 6.24647 3.34963C4.71367 4.14605 3.41996 5.33539 2.49772 6.79596C1.57549 8.25653 1.05783 9.93589 0.997727 11.6622C0.937621 13.3885 1.33722 15.0998 2.15564 16.621C2.97406 18.1422 4.18191 19.4186 5.65562 20.3197C7.12932 21.2208 8.81596 21.7142 10.543 21.7494C12.27 21.7847 13.9753 21.3605 15.4846 20.5202C15.1667 19.8943 15.0007 19.2022 15.0001 18.5002ZM4.60305 11.6587L3.12055 10.7692C2.94651 10.6647 2.81561 10.5014 2.75155 10.3087L2.42155 9.32021C2.78329 8.20372 3.3655 7.17122 4.13368 6.28392C4.90185 5.39662 5.84036 4.67257 6.89355 4.15471L7.31555 4.44771C7.4324 4.52901 7.52696 4.63836 7.59055 4.76571L7.72305 5.02971C7.79358 5.17106 7.90209 5.28995 8.03643 5.37306C8.17076 5.45617 8.32559 5.5002 8.48355 5.50021H9.42855C9.65399 5.50021 9.87019 5.58976 10.0296 5.74917C10.189 5.90858 10.2786 6.12478 10.2786 6.35021V6.36721C10.2785 6.52517 10.2345 6.68001 10.1514 6.81434C10.0683 6.94867 9.9494 7.05719 9.80805 7.12771L7.54005 8.26171C7.50857 8.27762 7.47802 8.29532 7.44855 8.31471L6.28805 9.08871C6.16479 9.17093 6.06503 9.28379 5.99855 9.41621L5.82605 9.76221C5.76654 9.88013 5.73554 10.0104 5.73554 10.1425C5.73554 10.2745 5.76654 10.4048 5.82605 10.5227C5.90593 10.6825 5.93346 10.8633 5.90474 11.0396C5.87602 11.2158 5.79251 11.3786 5.66605 11.5047L5.64055 11.5302C5.50665 11.6642 5.33185 11.7495 5.14389 11.7728C4.95593 11.7961 4.76559 11.7559 4.60305 11.6587ZM11.6721 15.1587C11.6722 15.2204 11.6624 15.2817 11.6431 15.3402L11.2501 16.5147C11.2221 16.5992 11.1747 16.676 11.1116 16.7387L10.4026 17.4502C10.322 17.5301 10.2673 17.6324 10.2456 17.7437L9.87005 19.6192C9.85284 19.7048 9.81634 19.7853 9.76331 19.8546C9.71028 19.9239 9.64213 19.9802 9.56405 20.0192L9.25655 20.1737C9.14878 20.2276 9.02677 20.2461 8.90785 20.2268C8.78893 20.2074 8.67914 20.151 8.59405 20.0657L8.02405 19.4957C7.98022 19.4518 7.94375 19.4012 7.91605 19.3457L7.55405 18.6212C7.51439 18.5415 7.49368 18.4537 7.49355 18.3647V16.5337C7.49348 16.4272 7.46381 16.3227 7.40783 16.232C7.35185 16.1414 7.27178 16.068 7.17655 16.0202L6.70155 15.7827C6.61216 15.7381 6.53597 15.6709 6.48055 15.5877L5.73055 14.4662C5.66761 14.3719 5.63403 14.2611 5.63405 14.1477V13.7477C5.63418 13.6412 5.66388 13.5367 5.71985 13.4461C5.77582 13.3554 5.85586 13.2821 5.95105 13.2342L6.39105 13.0142C6.50242 12.9588 6.59266 12.8686 6.64805 12.7572L6.86805 12.3172C6.91606 12.2216 6.98978 12.1413 7.08094 12.0853C7.17209 12.0293 7.27707 11.9998 7.38405 12.0002H8.18405C8.33614 12.0003 8.48198 12.0607 8.58955 12.1682L8.71805 12.2962C8.77121 12.3496 8.8344 12.392 8.90399 12.4209C8.97358 12.4498 9.04819 12.4647 9.12355 12.4647H9.24055C9.31591 12.4646 9.39054 12.4794 9.46017 12.5082C9.52981 12.537 9.59309 12.5792 9.6464 12.6325C9.69971 12.6858 9.742 12.749 9.77085 12.8186C9.7997 12.8882 9.81455 12.9629 9.81455 13.0382C9.81462 13.1448 9.8443 13.2492 9.90027 13.3399C9.95625 13.4306 10.0363 13.5039 10.1316 13.5517L11.3546 14.1627C11.4497 14.2106 11.5298 14.2839 11.5858 14.3746C11.6417 14.4652 11.6714 14.5697 11.6716 14.6762L11.6721 15.1587Z" fill="white"/>
<path d="M22 16.0502V4.50024C22 3.8372 21.7366 3.20132 21.2678 2.73248C20.7989 2.26364 20.163 2.00024 19.5 2.00024C18.837 2.00024 18.2011 2.26364 17.7322 2.73248C17.2634 3.20132 17 3.8372 17 4.50024V16.0502C16.5177 16.5425 16.1914 17.1663 16.0621 17.8432C15.9329 18.5202 16.0063 19.2202 16.2733 19.8556C16.5403 20.491 16.9889 21.0334 17.5629 21.4148C18.137 21.7963 18.8108 21.9997 19.5 21.9997C20.1892 21.9997 20.863 21.7963 21.4371 21.4148C22.0111 21.0334 22.4597 20.491 22.7267 19.8556C22.9937 19.2202 23.0672 18.5202 22.9379 17.8432C22.8086 17.1663 22.4823 16.5425 22 16.0502ZM18.5 4.50024C18.5 4.23503 18.6054 3.98067 18.7929 3.79314C18.9804 3.6056 19.2348 3.50024 19.5 3.50024C19.7652 3.50024 20.0196 3.6056 20.2071 3.79314C20.3946 3.98067 20.5 4.23503 20.5 4.50024V6.50025H18.5V4.50024Z" fill="#ADDE34"/>
</svg>
