<svg width="27" height="33" viewBox="0 0 27 33" fill="none" xmlns="http://www.w3.org/2000/svg">
<path d="M14.5052 31.1148L14.5052 31.1148C13.8866 31.6574 12.9845 31.6574 12.366 31.1148L12.366 31.1148C11.0287 29.9419 8.15026 27.3054 5.60222 24.215C4.32829 22.6698 3.12726 20.9999 2.24262 19.333C1.36143 17.6724 0.772345 15.9746 0.772345 14.3841C0.772345 7.17216 6.44099 1.32386 13.4356 1.32386C20.4302 1.32386 26.0988 7.17216 26.0988 14.3841C26.0988 15.9746 25.5097 17.6724 24.6285 19.333C23.7439 20.9999 22.5429 22.6698 21.2689 24.215C18.7209 27.3054 15.8425 29.9419 14.5052 31.1148Z" fill="#D9BD22" stroke="white" stroke-width="1.46657"/>
</svg>
